<?xml version="1.0" standalone="no"?>
<!DOCTYPE svg PUBLIC "-//W3C//DTD SVG 20010904//EN"
 "http://www.w3.org/TR/2001/REC-SVG-20010904/DTD/svg10.dtd">
<svg version="1.0" xmlns="http://www.w3.org/2000/svg"
 width="521.000000pt" height="521.000000pt" viewBox="0 0 521.000000 521.000000"
 preserveAspectRatio="xMidYMid meet">
<metadata>
Created by potrace 1.14, written by Peter Selinger 2001-2017
</metadata>
<g transform="translate(0.000000,521.000000) scale(0.100000,-0.100000)"
fill="#000000" stroke="none">
<path d="M2400 5118 c-234 -136 -520 -303 -566 -329 -256 -148 -331 -191 -344
-199 -21 -14 -458 -266 -725 -419 -121 -69 -221 -129 -223 -133 -2 -5 -8 -8
-13 -8 -5 0 -38 -17 -72 -38 -35 -21 -71 -41 -80 -45 -16 -6 -17 -92 -15
-1354 l3 -1347 400 -228 c220 -125 401 -228 403 -228 1 0 32 -18 68 -40 36
-22 68 -40 70 -40 2 0 25 -13 52 -29 26 -15 68 -39 93 -53 201 -113 1014 -576
1053 -599 l48 -30 62 34 c33 19 79 44 101 57 22 12 146 81 275 153 129 72 249
138 267 148 33 19 415 230 633 351 69 38 132 73 140 78 8 6 44 26 80 45 36 19
72 39 80 45 8 5 89 50 180 100 91 50 181 100 200 110 19 11 90 50 157 87 l123
68 0 1323 c0 799 -4 1322 -9 1322 -5 0 -49 23 -98 51 -48 28 -110 64 -138 79
-87 47 -130 72 -140 80 -5 4 -35 21 -65 37 -30 17 -223 125 -428 242 -205 116
-377 211 -382 211 -6 0 -10 5 -10 10 0 6 -4 10 -9 10 -5 0 -64 32 -131 70 -67
39 -124 70 -127 70 -3 0 -17 8 -31 18 -15 11 -52 32 -82 49 -51 28 -223 125
-262 148 -9 5 -34 20 -55 31 -42 24 -62 35 -216 122 -60 34 -109 62 -110 61
-1 0 -72 -41 -157 -91z"/>
</g>
</svg>
